<?xml version="1.0" standalone="no"?>
<svg viewBox="0 0 200 200" xmlns="http://www.w3.org/2000/svg">
  <path fill=" rgb(25, 183, 223)" d="M39,-69.3C51.1,-60.5,61.9,-51.3,67.3,-39.6C72.7,-28,72.6,-14,71.7,-0.5C70.9,13.1,69.4,26.1,62.7,35.4C55.9,44.7,44,50.1,32.7,55.4C21.4,60.7,10.7,65.8,-0.7,66.9C-12.1,68.1,-24.1,65.4,-33.5,59C-42.9,52.6,-49.6,42.6,-59.6,32.1C-69.5,21.7,-82.7,10.8,-83.7,-0.6C-84.6,-12,-73.4,-23.9,-63.8,-34.9C-54.1,-45.9,-46,-55.8,-35.7,-65.6C-25.3,-75.5,-12.7,-85.1,0.4,-85.8C13.4,-86.4,26.8,-78.1,39,-69.3Z" transform="translate(100 100)" />
</svg>
